<svg xmlns="http://www.w3.org/2000/svg" viewBox="0 0 1200 675" role="img" aria-labelledby="t d"><title id="t">越南投资数据主题示意图</title><desc id="d">站内原创的投资趋势与制造业插图</desc><defs><linearGradient id="g" x2="1" y2="1"><stop stop-color="#071f2b"/><stop offset=".55" stop-color="#075f57"/><stop offset="1" stop-color="#16a17d"/></linearGradient></defs><rect width="1200" height="675" fill="url(#g)"/><g opacity=".12" fill="#fff"><circle cx="1040" cy="80" r="210"/><circle cx="110" cy="650" r="270"/></g><g transform="translate(100 200)"><path d="M0 300h1000" stroke="#c5e8df" stroke-opacity=".35" stroke-width="3"/><rect x="70" y="175" width="120" height="125" rx="8" fill="#78ccb6"/><rect x="260" y="115" width="120" height="185" rx="8" fill="#9ce1cf"/><rect x="450" y="55" width="120" height="245" rx="8" fill="#c2efe3"/><rect x="640" y="135" width="120" height="165" rx="8" fill="#64bda8"/><rect x="830" y="90" width="120" height="210" rx="8" fill="#d9a84c"/><path d="m70 140 250-82 190-45 190 72 220-98" fill="none" stroke="#fff" stroke-width="12" stroke-linecap="round" stroke-linejoin="round"/><circle cx="70" cy="140" r="13" fill="#fff"/><circle cx="320" cy="58" r="13" fill="#fff"/><circle cx="510" cy="13" r="13" fill="#fff"/><circle cx="700" cy="85" r="13" fill="#fff"/><circle cx="920" cy="-13" r="13" fill="#fff"/></g><text x="90" y="92" fill="#fff" font-family="Arial,sans-serif" font-size="36" font-weight="700">VIETNAM INVESTMENT WATCH</text><text x="90" y="140" fill="#c9ece4" font-family="Arial,sans-serif" font-size="24">FDI · Manufacturing · Real estate</text><text x="90" y="640" fill="#a9cfc5" font-family="Arial,sans-serif" font-size="18">VietnamZiChan editorial illustration · not a statistical chart</text></svg>
